<svg xmlns="http://www.w3.org/2000/svg" viewBox="0 0 140 140" width="140" height="140"><ellipse cx="70" cy="110" rx="33" ry="5" fill="rgba(40,28,16,0.16)"></ellipse><g stroke="#241a12" stroke-width="1.4" stroke-linejoin="round"><polygon points="88,76 104,68 104,104 88,108" fill="#a98a63"></polygon><rect x="40" y="76" width="48" height="32" rx="2" fill="#cbab82"></rect><polygon points="36,76 64,54 92,76" fill="#c95f43"></polygon><polygon points="64,54 80,46 108,68 92,76" fill="#9c4530"></polygon><line x1="64" y1="54" x2="80" y2="46" stroke="#7e3a28"></line><path d="M55 108 L55 96 a9 9 0 0 1 18 0 L73 108 Z" fill="#5c3e27"></path><line x1="64" y1="91" x2="64" y2="108" stroke="#3a2616" stroke-width="0.8"></line><path d="M44 90 a5 5 0 0 1 10 0 v6 h-10 z" fill="#8fb0c0"></path><line x1="64" y1="54" x2="64" y2="32"></line><polygon points="64,32 84,37 64,42" fill="#c0392b"></polygon><rect x="26" y="99" width="12" height="9" rx="1.5" fill="#8a6442"></rect><line x1="26" y1="103.5" x2="38" y2="103.5" stroke="#6b4c30"></line></g></svg>