<svg xmlns="http://www.w3.org/2000/svg" viewBox="0 0 140 140" width="140" height="140"><ellipse cx="70" cy="110" rx="33" ry="5" fill="rgba(40,28,16,0.16)"></ellipse><g stroke="#241a12" stroke-width="1.4" stroke-linejoin="round"><rect x="84" y="90" width="30" height="18" rx="2" fill="#9ec455"></rect><g stroke="#5f8f33" stroke-width="2"><line x1="90" y1="94" x2="90" y2="107"></line><line x1="97" y1="94" x2="97" y2="107"></line><line x1="104" y1="94" x2="104" y2="107"></line><line x1="111" y1="94" x2="111" y2="107"></line></g><path d="M28,84 a6 6 0 0 1 12 0 v24 h-12 z" fill="#d3c4a6"></path><ellipse cx="34" cy="84" rx="6" ry="3" fill="#bfb097"></ellipse><polygon points="80,80 92,74 92,108 80,108" fill="#7e3a28"></polygon><rect x="44" y="80" width="36" height="28" rx="2" fill="#9c4530"></rect><polygon points="40,80 62,60 84,80" fill="#8a4230"></polygon><polygon points="62,60 70,56 92,74 84,80" fill="#6e3122"></polygon><path d="M55 108 V92 a7 7 0 0 1 14 0 V108 Z" fill="#6e4a31"></path><line x1="62" y1="85" x2="62" y2="108" stroke="#46301e"></line><polygon points="46,80 58,80 52,72" fill="#cdbfa6"></polygon></g></svg>