<svg xmlns="http://www.w3.org/2000/svg" viewBox="0 0 140 140" width="140" height="140"><ellipse cx="70" cy="110" rx="33" ry="5" fill="rgba(40,28,16,0.16)"></ellipse><g stroke="#241a12" stroke-width="1.4" stroke-linejoin="round"><rect x="30" y="98" width="54" height="7" rx="2" fill="#7a5536"></rect><g stroke="#5c3e27" stroke-width="3"><line x1="36" y1="105" x2="36" y2="118"></line><line x1="78" y1="105" x2="78" y2="118"></line></g><path d="M52 86 Q70 84 96 90 Q92 104 84 106 L62 106 Q54 100 52 86 Z" fill="#8a6442"></path><path d="M55 92 Q72 91 92 95 Q90 101 84 102 L62 102 Q57 98 55 92Z" fill="#6b4c30"></path><rect x="73" y="46" width="3" height="40" fill="#3a2616"></rect><path d="M76 48 Q98 56 80 82 Z" fill="#eee6d2"></path><path d="M73 50 Q52 58 70 80 Z" fill="#dcd2bc"></path><polygon points="76,46 90,50 76,54" fill="#c0392b"></polygon></g></svg>