<svg xmlns="http://www.w3.org/2000/svg" viewBox="0 0 140 140" width="140" height="140"><ellipse cx="70" cy="110" rx="33" ry="5" fill="rgba(40,28,16,0.16)"></ellipse><g stroke="#241a12" stroke-width="1.4" stroke-linejoin="round"><ellipse cx="70" cy="106" rx="20" ry="6" fill="#bcae90"></ellipse><path d="M50,56 a20 6 0 0 0 40 0 v50 a20 6 0 0 1 -40 0 z" fill="#d8cab0"></path><path d="M82,57 a20 6 0 0 1 8 -1 v50 a20 6 0 0 1 -8 4.5 z" fill="#c3b595" stroke="none"></path><ellipse cx="70" cy="56" rx="20" ry="6" fill="#e3d8bf"></ellipse><g fill="#8fb0c0" stroke="#241a12" stroke-width="0.8"><path d="M60 66 a4 4 0 0 1 8 0 v5 h-8z"></path><path d="M60 82 a4 4 0 0 1 8 0 v5 h-8z"></path></g><path d="M63 106 v-12 a7 7 0 0 1 14 0 v12 z" fill="#5c3e27"></path><polygon points="46,56 70,28 94,56" fill="#4f7ba8"></polygon><polygon points="70,28 94,56 80,56" fill="#385f86"></polygon><line x1="70" y1="28" x2="70" y2="18"></line><polygon points="70,18 84,22 70,26" fill="#e0a14a"></polygon></g></svg>