<svg xmlns="http://www.w3.org/2000/svg" viewBox="0 0 140 140" width="140" height="140"><ellipse cx="70" cy="110" rx="33" ry="5" fill="rgba(40,28,16,0.16)"></ellipse><g stroke="#241a12" stroke-width="1.4" stroke-linejoin="round"><rect x="90" y="80" width="6" height="26" fill="#6e4a31"></rect><circle cx="93" cy="76" r="15" fill="#3f6e2e"></circle><circle cx="99" cy="80" r="9" fill="#4c8038"></circle><polygon points="84,78 98,71 98,104 84,108" fill="#5c3e27"></polygon><rect x="42" y="78" width="42" height="30" rx="2" fill="#7d5838"></rect><g stroke="#5c3e27" stroke-width="0.8"><line x1="42" y1="86" x2="84" y2="86"></line><line x1="42" y1="94" x2="84" y2="94"></line><line x1="42" y1="102" x2="84" y2="102"></line></g><polygon points="38,78 63,58 88,78" fill="#8a6442"></polygon><polygon points="63,58 77,52 102,71 88,78" fill="#6b4c30"></polygon><path d="M56 108 V92 a7 7 0 0 1 14 0 V108Z" fill="#46301e"></path><rect x="48" y="60" width="6" height="12" fill="#7a6a58"></rect><circle cx="51" cy="54" r="4" fill="#cfcac0" opacity="0.7"></circle><circle cx="56" cy="47" r="5" fill="#cfcac0" opacity="0.5"></circle><g fill="#9c7a52"><ellipse cx="32" cy="104" rx="9" ry="5"></ellipse><ellipse cx="44" cy="106" rx="9" ry="5"></ellipse><circle cx="32" cy="104" r="2.5" fill="#6b4c30"></circle></g></g></svg>