<svg xmlns="http://www.w3.org/2000/svg" viewBox="0 0 140 140" width="140" height="140"><ellipse cx="70" cy="110" rx="33" ry="5" fill="rgba(40,28,16,0.16)"></ellipse><g stroke="#241a12" stroke-width="1.4" stroke-linejoin="round"><polygon points="96,86 104,82 104,106 96,108" fill="#b3996f"></polygon><rect x="38" y="86" width="58" height="22" rx="2" fill="#c9ad88"></rect><rect x="32" y="70" width="72" height="7" fill="#c0392b"></rect><path d="M32 77 q6 9 12 0 q6 9 12 0 q6 9 12 0 q6 9 12 0 q6 9 12 0 q6 9 12 0 L104 77 Z" fill="#efe7d8"></path><rect x="44" y="92" width="18" height="16" rx="1.5" fill="#8a6442"></rect><line x1="44" y1="100" x2="62" y2="100" stroke="#6b4c30"></line><circle cx="80" cy="99" r="5" fill="#e0a14a"></circle><circle cx="91" cy="101" r="4.5" fill="#4e7d3a"></circle><circle cx="86" cy="91" r="4.5" fill="#b04a34"></circle></g></svg>