<svg xmlns="http://www.w3.org/2000/svg" viewBox="0 0 140 140" width="140" height="140"><ellipse cx="70" cy="110" rx="33" ry="5" fill="rgba(40,28,16,0.16)"></ellipse><g stroke="#241a12" stroke-width="1.4" stroke-linejoin="round"><polygon points="90,80 104,72 104,104 90,108" fill="#8f8a80"></polygon><rect x="44" y="80" width="46" height="28" rx="2" fill="#aaa498"></rect><g stroke="#8a857a" stroke-width="0.8"><line x1="44" y1="89" x2="90" y2="89"></line><line x1="44" y1="98" x2="90" y2="98"></line><line x1="60" y1="80" x2="60" y2="89"></line><line x1="75" y1="89" x2="75" y2="98"></line></g><polygon points="40,80 67,60 94,80" fill="#7a5536"></polygon><polygon points="67,60 81,52 108,72 94,80" fill="#5c3e27"></polygon><path d="M56 108 V92 a8 8 0 0 1 16 0 V108Z" fill="#46301e"></path><g><polygon points="20,106 36,106 36,96 20,96" fill="#cdc7bc"></polygon><polygon points="20,96 25,92 41,92 36,96" fill="#e0dace"></polygon><polygon points="36,96 41,92 41,102 36,106" fill="#aaa498"></polygon></g><g><polygon points="24,96 38,96 38,88 24,88" fill="#cdc7bc"></polygon><polygon points="24,88 28,85 42,85 38,88" fill="#e0dace"></polygon><polygon points="38,88 42,85 42,93 38,96" fill="#aaa498"></polygon></g></g></svg>