<svg xmlns="http://www.w3.org/2000/svg" viewBox="0 0 140 140" width="140" height="140"><ellipse cx="70" cy="110" rx="33" ry="5" fill="rgba(40,28,16,0.16)"></ellipse><g stroke="#241a12" stroke-width="1.4" stroke-linejoin="round"><polygon points="30,109 110,109 103,101 37,101" fill="#c4b497"></polygon><polygon points="95,64 105,58 105,101 95,100" fill="#c9ba97"></polygon><g stroke="#241a12" stroke-width="0.9" fill="#f4eddf"><rect x="40" y="70" width="8" height="31" rx="3.5"></rect><ellipse cx="44" cy="70" rx="4.2" ry="2"></ellipse><rect x="55" y="70" width="8" height="31" rx="3.5"></rect><ellipse cx="59" cy="70" rx="4.2" ry="2"></ellipse><rect x="70" y="70" width="8" height="31" rx="3.5"></rect><ellipse cx="74" cy="70" rx="4.2" ry="2"></ellipse><rect x="85" y="70" width="8" height="31" rx="3.5"></rect><ellipse cx="89" cy="70" rx="4.2" ry="2"></ellipse></g><rect x="37" y="62" width="59" height="9" rx="2" fill="#e7ddc7"></rect><polygon points="33,62 67,44 101,62" fill="#ddcfb2"></polygon><polygon points="67,44 101,62 88,62" fill="#c6b793"></polygon><circle cx="67" cy="55" r="3.5" fill="#c79a42"></circle></g></svg>