<svg xmlns="http://www.w3.org/2000/svg" viewBox="0 0 140 140" width="140" height="140"><ellipse cx="70" cy="110" rx="33" ry="5" fill="rgba(40,28,16,0.16)"></ellipse><g stroke="#241a12" stroke-width="1.4" stroke-linejoin="round"><polygon points="24,111 116,111 109,102 31,102" fill="#c4b497"></polygon><polygon points="29,102 111,102 104,94 36,94" fill="#d8c9ad"></polygon><polygon points="95,60 109,53 109,94 95,94" fill="#ccbb98"></polygon><rect x="40" y="58" width="55" height="36" fill="#efe7d4"></rect><g stroke="#241a12" stroke-width="0.9" fill="#f9f3e8"><rect x="42" y="62" width="8" height="30" rx="3.5"></rect><ellipse cx="46" cy="62" rx="4.2" ry="2"></ellipse><rect x="54" y="62" width="8" height="30" rx="3.5"></rect><ellipse cx="58" cy="62" rx="4.2" ry="2"></ellipse><rect x="66" y="62" width="8" height="30" rx="3.5"></rect><ellipse cx="70" cy="62" rx="4.2" ry="2"></ellipse><rect x="78" y="62" width="8" height="30" rx="3.5"></rect><ellipse cx="82" cy="62" rx="4.2" ry="2"></ellipse></g><polygon points="33,58 70,37 107,58" fill="#ddcfb2"></polygon><polygon points="70,37 107,58 93,58" fill="#c6b793"></polygon><circle cx="70" cy="49" r="4" fill="#c79a42"></circle><ellipse cx="70" cy="39" rx="17" ry="6" fill="#567fa8"></ellipse><path d="M53 39 Q70 3 87 39 Z" fill="#6f9bc4"></path><path d="M70 5 Q87 39 70 39 Z" fill="#5276a0"></path><circle cx="70" cy="7" r="3" fill="#e0a14a"></circle></g></svg>