<svg xmlns="http://www.w3.org/2000/svg" viewBox="0 0 140 140" width="140" height="140"><ellipse cx="70" cy="110" rx="27" ry="4.5" fill="rgba(40,28,16,0.16)"></ellipse><g stroke="#241a12" stroke-width="1.4" stroke-linejoin="round"><rect x="55" y="52" width="30" height="56" rx="2" fill="#c4b497"></rect><rect x="76" y="52" width="9" height="56" fill="#b1a07f" stroke="none"></rect><line x1="76" y1="52" x2="76" y2="108" stroke="#241a12" stroke-width="0.8"></line><rect x="48" y="44" width="44" height="11" rx="1.5" fill="#cdbe9b"></rect><polygon points="84,44 92,44 92,55 84,55" fill="#b9a982" stroke="none"></polygon><rect x="50" y="36" width="9" height="9" fill="#cdbe9b"></rect><rect x="65.5" y="36" width="9" height="9" fill="#cdbe9b"></rect><rect x="81" y="36" width="9" height="9" fill="#cdbe9b"></rect><rect x="61" y="60" width="18" height="13" rx="2" fill="#3a2616"></rect><rect x="63.5" y="62.5" width="13" height="5.5" rx="1" fill="#8fb0c0" stroke="#241a12" stroke-width="0.7"></rect><rect x="67.5" y="80" width="5" height="13" rx="2.5" fill="#3a2616"></rect><path d="M62 108 L62 101 a8 8 0 0 1 16 0 L78 108 Z" fill="#5c3e27"></path><line x1="70" y1="101" x2="70" y2="108" stroke="#3a2616" stroke-width="0.8"></line><line x1="90" y1="36" x2="90" y2="18"></line><polygon points="90,19 106,24 90,29" fill="#c0563a"></polygon></g></svg>
